#N canvas 396 399 999 419 10;
#X obj 18 30 inlet;
#X obj 410 25 inlet;
#X obj 454 28 inlet;
#X obj 495 29 inlet;
#X obj 538 31 inlet;
#X obj 579 31 inlet;
#X obj 659 31 inlet;
#X obj 619 31 inlet;
#X obj 153 27 inlet;
#X obj 110 26 inlet;
#X obj 698 30 inlet;
#X obj 64 27 inlet;
#X obj 197 25 inlet;
#X obj 325 24 inlet;
#X obj 284 23 inlet;
#X obj 240 25 inlet;
#X obj 31 99 halfadder;
#X obj 160 105 fulladder;
#X obj 288 106 fulladder;
#X obj 376 102 fulladder;
#X obj 459 100 fulladder;
#X obj 531 98 fulladder;
#X obj 602 102 fulladder;
#X obj 679 101 fulladder;
#X obj 102 247 outlet;
#X obj 212 250 outlet;
#X obj 334 245 outlet;
#X obj 402 242 outlet;
#X obj 455 239 outlet;
#X obj 516 237 outlet;
#X obj 574 239 outlet;
#X obj 639 236 outlet;
#X connect 0 0 23 0;
#X connect 1 0 23 1;
#X connect 2 0 22 1;
#X connect 3 0 21 1;
#X connect 4 0 20 1;
#X connect 5 0 19 1;
#X connect 6 0 17 1;
#X connect 7 0 18 1;
#X connect 8 0 20 0;
#X connect 9 0 21 0;
#X connect 10 0 16 1;
#X connect 11 0 22 0;
#X connect 12 0 19 0;
#X connect 13 0 16 0;
#X connect 14 0 17 0;
#X connect 15 0 18 0;
#X connect 16 0 17 2;
#X connect 16 1 31 0;
#X connect 17 0 18 2;
#X connect 17 1 30 0;
#X connect 18 0 19 2;
#X connect 18 1 29 0;
#X connect 19 0 20 2;
#X connect 19 1 28 0;
#X connect 20 0 21 2;
#X connect 20 1 27 0;
#X connect 21 0 22 2;
#X connect 21 1 26 0;
#X connect 22 0 23 2;
#X connect 22 1 25 0;
#X connect 23 1 24 0;
