#N canvas 122 82 1155 625 10;
#X obj 316 500 or8way;
#X obj 314 565 outlet zr;
#X obj 314 534 not;
#X obj 97 576 outlet ng;
#X obj 100 540 muxer;
#X obj 88 490 1;
#X obj 122 493 0;
#X obj 787 9 loadbang;
#X obj 752 81 inlet zx;
#X obj 820 81 inlet nx;
#X obj 83 43 inlet;
#X obj 39 43 inlet;
#X obj 127 42 inlet;
#X obj 170 40 inlet;
#X obj 255 41 inlet;
#X obj 211 41 inlet;
#X obj 299 40 inlet;
#X obj 342 38 inlet;
#X obj 434 39 inlet;
#X obj 390 39 inlet;
#X obj 478 38 inlet;
#X obj 521 36 inlet;
#X obj 606 37 inlet;
#X obj 562 37 inlet;
#X obj 650 36 inlet;
#X obj 693 34 inlet;
#X obj 882 81 inlet zy;
#X obj 944 82 inlet ny;
#X obj 1008 80 inlet f;
#X obj 1070 81 inlet no;
#X obj 124 186 not8;
#X obj 47 254 not8;
#X obj 192 361 and8;
#X obj 232 234 add8bitchip;
#X obj 169 212 muxer8;
#X obj 290 364 not8;
#X obj 429 565 outlet;
#X obj 567 567 outlet;
#X obj 520 566 outlet;
#X obj 473 566 outlet;
#X obj 615 567 outlet;
#X obj 753 569 outlet;
#X obj 706 568 outlet;
#X obj 659 568 outlet;
#X obj 54 171 muxer8;
#X obj 69 104 muxer8;
#X obj 94 300 muxer8;
#X obj 282 264 muxer8;
#X obj 439 343 muxer8;
#X obj 787 31 s \$1-lb;
#X obj 751 108 s \$1-zer;
#X obj 882 109 s \$1-zey;
#X obj 115 74 r \$1-zer;
#X obj 127 121 r \$1-zey;
#X obj 18 119 r \$1-false;
#X obj 112 462 r \$1-lb;
#X obj 134 517 s \$1-false;
#X obj 36 77 r \$1-false;
#X connect 0 0 2 0;
#X connect 2 0 1 0;
#X connect 4 0 3 0;
#X connect 5 0 4 0;
#X connect 6 0 4 1;
#X connect 6 0 56 0;
#X connect 7 0 49 0;
#X connect 8 0 50 0;
#X connect 9 0 34 16;
#X connect 10 0 45 9;
#X connect 11 0 45 8;
#X connect 12 0 45 10;
#X connect 13 0 45 11;
#X connect 14 0 45 13;
#X connect 15 0 45 12;
#X connect 16 0 45 14;
#X connect 17 0 45 15;
#X connect 18 0 44 9;
#X connect 19 0 44 8;
#X connect 20 0 44 10;
#X connect 21 0 44 11;
#X connect 22 0 44 13;
#X connect 23 0 44 12;
#X connect 24 0 44 14;
#X connect 25 0 44 15;
#X connect 26 0 51 0;
#X connect 27 0 46 16;
#X connect 28 0 47 16;
#X connect 29 0 48 16;
#X connect 30 0 34 0;
#X connect 30 1 34 1;
#X connect 30 2 34 2;
#X connect 30 3 34 3;
#X connect 30 4 34 4;
#X connect 30 5 34 5;
#X connect 30 6 34 6;
#X connect 30 7 34 7;
#X connect 31 0 46 0;
#X connect 31 1 46 1;
#X connect 31 2 46 2;
#X connect 31 3 46 3;
#X connect 31 4 46 4;
#X connect 31 5 46 5;
#X connect 31 6 46 6;
#X connect 31 7 46 7;
#X connect 32 0 47 8;
#X connect 32 1 47 9;
#X connect 32 2 47 10;
#X connect 32 3 47 11;
#X connect 32 4 47 12;
#X connect 32 5 47 13;
#X connect 32 6 47 14;
#X connect 32 7 47 15;
#X connect 33 0 47 0;
#X connect 33 1 47 1;
#X connect 33 2 47 2;
#X connect 33 3 47 3;
#X connect 33 4 47 4;
#X connect 33 5 47 5;
#X connect 33 6 47 6;
#X connect 33 7 47 7;
#X connect 34 0 33 0;
#X connect 34 0 32 0;
#X connect 34 1 33 1;
#X connect 34 1 32 1;
#X connect 34 2 33 2;
#X connect 34 2 32 2;
#X connect 34 3 33 3;
#X connect 34 3 32 3;
#X connect 34 4 33 4;
#X connect 34 4 32 4;
#X connect 34 5 33 5;
#X connect 34 5 32 5;
#X connect 34 6 33 6;
#X connect 34 6 32 6;
#X connect 34 7 33 7;
#X connect 34 7 32 7;
#X connect 35 0 48 0;
#X connect 35 1 48 1;
#X connect 35 2 48 2;
#X connect 35 3 48 3;
#X connect 35 4 48 4;
#X connect 35 5 48 5;
#X connect 35 6 48 6;
#X connect 35 7 48 7;
#X connect 44 0 31 0;
#X connect 44 0 46 8;
#X connect 44 1 31 1;
#X connect 44 1 46 9;
#X connect 44 2 31 2;
#X connect 44 2 46 10;
#X connect 44 3 31 3;
#X connect 44 3 46 11;
#X connect 44 4 31 4;
#X connect 44 4 46 12;
#X connect 44 5 31 5;
#X connect 44 5 46 13;
#X connect 44 6 31 6;
#X connect 44 6 46 14;
#X connect 44 7 31 7;
#X connect 44 7 46 15;
#X connect 45 0 30 0;
#X connect 45 0 34 8;
#X connect 45 1 30 1;
#X connect 45 1 34 9;
#X connect 45 2 30 2;
#X connect 45 2 34 10;
#X connect 45 3 30 3;
#X connect 45 3 34 11;
#X connect 45 4 30 4;
#X connect 45 4 34 12;
#X connect 45 5 30 5;
#X connect 45 5 34 13;
#X connect 45 6 30 6;
#X connect 45 6 34 14;
#X connect 45 7 30 7;
#X connect 45 7 34 15;
#X connect 46 0 33 8;
#X connect 46 0 32 8;
#X connect 46 1 33 9;
#X connect 46 1 32 9;
#X connect 46 2 33 10;
#X connect 46 2 32 10;
#X connect 46 3 33 11;
#X connect 46 3 32 11;
#X connect 46 4 33 12;
#X connect 46 4 32 12;
#X connect 46 5 33 13;
#X connect 46 5 32 13;
#X connect 46 6 33 14;
#X connect 46 6 32 14;
#X connect 46 7 33 15;
#X connect 46 7 32 15;
#X connect 47 0 35 0;
#X connect 47 0 48 8;
#X connect 47 1 35 1;
#X connect 47 1 48 9;
#X connect 47 2 35 2;
#X connect 47 2 48 10;
#X connect 47 3 35 3;
#X connect 47 3 48 11;
#X connect 47 4 35 4;
#X connect 47 4 48 12;
#X connect 47 5 35 5;
#X connect 47 5 48 13;
#X connect 47 6 35 6;
#X connect 47 6 48 14;
#X connect 47 7 35 7;
#X connect 47 7 48 15;
#X connect 48 0 4 2;
#X connect 48 0 0 0;
#X connect 48 0 36 0;
#X connect 48 1 0 1;
#X connect 48 1 39 0;
#X connect 48 2 0 2;
#X connect 48 2 38 0;
#X connect 48 3 0 3;
#X connect 48 3 37 0;
#X connect 48 4 0 4;
#X connect 48 4 40 0;
#X connect 48 5 0 5;
#X connect 48 5 43 0;
#X connect 48 6 0 6;
#X connect 48 6 42 0;
#X connect 48 7 41 0;
#X connect 48 7 0 7;
#X connect 52 0 45 16;
#X connect 53 0 44 16;
#X connect 54 0 44 0;
#X connect 54 0 44 1;
#X connect 54 0 44 2;
#X connect 54 0 44 4;
#X connect 54 0 44 5;
#X connect 54 0 44 6;
#X connect 54 0 44 7;
#X connect 54 0 44 3;
#X connect 55 0 5 0;
#X connect 55 0 6 0;
#X connect 57 0 45 0;
#X connect 57 0 45 1;
#X connect 57 0 45 2;
#X connect 57 0 45 3;
#X connect 57 0 45 4;
#X connect 57 0 45 5;
#X connect 57 0 45 6;
#X connect 57 0 45 7;
