#N canvas 644 327 447 306 10;
#X text 132 47 x;
#X text 188 50 y;
#X obj 244 100 tgl 15 0 empty empty empty 17 7 0 10 -262144 -1 -1 0
1;
#X obj 270 100 tgl 15 0 empty empty empty 17 7 0 10 -262144 -1 -1 0
1;
#X obj 301 100 tgl 15 0 empty empty empty 17 7 0 10 -262144 -1 -1 0
1;
#X obj 343 100 tgl 15 0 empty empty empty 17 7 0 10 -262144 -1 -1 0
1;
#X obj 372 100 tgl 15 0 empty empty empty 17 7 0 10 -262144 -1 -1 0
1;
#X obj 404 100 tgl 15 0 empty empty empty 17 7 0 10 -262144 -1 -1 0
1;
#X text 281 62 instruction set;
#X obj 90 151 tgl 15 0 empty empty empty 17 7 0 10 -262144 -1 -1 0
1;
#X obj 90 204 tgl 15 0 empty empty empty 17 7 0 10 -262144 -1 -1 1
1;
#X text 90 124 negative?;
#X text 90 177 Zero?;
#X floatatom 146 200 5 0 0 0 - - -, f 5;
#X text 242 79 zx;
#X text 270 78 nx;
#X text 299 77 zy;
#X text 341 78 ny;
#X text 373 79 f;
#X text 406 77 no;
#X obj 146 170 bintodec;
#X obj 125 101 dectobin;
#X obj 183 99 dectobin;
#X floatatom 125 73 5 -128 127 0 - - -, f 5;
#X floatatom 183 73 5 -128 127 0 - - -, f 5;
#X obj 157 135 ALU one;
#X connect 2 0 25 16;
#X connect 3 0 25 17;
#X connect 4 0 25 18;
#X connect 5 0 25 19;
#X connect 6 0 25 20;
#X connect 7 0 25 21;
#X connect 20 0 13 0;
#X connect 21 0 25 0;
#X connect 21 1 25 1;
#X connect 21 2 25 2;
#X connect 21 3 25 3;
#X connect 21 4 25 4;
#X connect 21 5 25 5;
#X connect 21 6 25 6;
#X connect 21 7 25 7;
#X connect 22 0 25 8;
#X connect 22 1 25 9;
#X connect 22 2 25 10;
#X connect 22 3 25 11;
#X connect 22 4 25 12;
#X connect 22 5 25 13;
#X connect 22 6 25 14;
#X connect 22 7 25 15;
#X connect 23 0 21 0;
#X connect 24 0 22 0;
#X connect 25 0 9 0;
#X connect 25 1 10 0;
#X connect 25 2 20 0;
#X connect 25 3 20 1;
#X connect 25 4 20 2;
#X connect 25 5 20 3;
#X connect 25 6 20 4;
#X connect 25 7 20 5;
#X connect 25 8 20 6;
#X connect 25 9 20 7;
