#N canvas 435 402 899 300 10;
#X obj 59 145 and;
#X obj 94 142 and;
#X obj 141 143 and;
#X obj 182 143 and;
#X obj 220 142 and;
#X obj 260 139 and;
#X obj 319 141 and;
#X obj 371 144 and;
#X obj 100 92 inlet;
#X obj 55 91 inlet;
#X obj 145 96 inlet;
#X obj 189 96 inlet;
#X obj 277 92 inlet;
#X obj 236 93 inlet;
#X obj 326 97 inlet;
#X obj 370 97 inlet;
#X obj 474 92 inlet;
#X obj 433 92 inlet;
#X obj 523 97 inlet;
#X obj 567 97 inlet;
#X obj 655 93 inlet;
#X obj 614 94 inlet;
#X obj 704 98 inlet;
#X obj 748 98 inlet;
#X obj 35 220 outlet;
#X obj 86 218 outlet;
#X obj 134 218 outlet;
#X obj 185 219 outlet;
#X obj 229 218 outlet;
#X obj 280 216 outlet;
#X obj 328 216 outlet;
#X obj 379 217 outlet;
#X connect 0 0 24 0;
#X connect 1 0 25 0;
#X connect 2 0 26 0;
#X connect 3 0 27 0;
#X connect 4 0 28 0;
#X connect 5 0 29 0;
#X connect 6 0 30 0;
#X connect 7 0 31 0;
#X connect 8 0 1 1;
#X connect 9 0 0 1;
#X connect 10 0 2 1;
#X connect 11 0 3 1;
#X connect 12 0 5 1;
#X connect 13 0 4 1;
#X connect 14 0 6 1;
#X connect 15 0 7 1;
#X connect 16 0 1 0;
#X connect 17 0 0 0;
#X connect 18 0 2 0;
#X connect 19 0 3 0;
#X connect 20 0 5 0;
#X connect 21 0 4 0;
#X connect 22 0 6 0;
#X connect 23 0 7 0;
