#N canvas 0 0 450 300 10;
#X obj 67 59 t b f;
#X obj 108 59 t b f;
#X obj 165 59 t b f;
#X obj 221 59 t b f;
#X obj 268 59 t b f;
#X obj 313 59 t b f;
#X obj 366 59 t b f;
#X obj 16 109 expr (-(pow(2 \, 7)) * $f1) + (pow(2 \, 6)* $f2) + (pow(2
\, 5) * $f3) + (pow(2 \, 4) * $f4) + (pow(2 \, 3) * $f5) + (pow(2 \,
2)* $f6) + (pow(2 \, 1) * $f7) + ($f8);
#X obj 176 188 outlet;
#X obj 64 3 inlet;
#X obj 102 4 inlet;
#X obj 139 4 inlet;
#X obj 177 5 inlet;
#X obj 215 6 inlet;
#X obj 252 6 inlet;
#X obj 289 6 inlet;
#X obj 327 7 inlet;
#X connect 0 0 7 0;
#X connect 0 1 7 1;
#X connect 1 0 7 0;
#X connect 1 1 7 2;
#X connect 2 0 7 0;
#X connect 2 1 7 3;
#X connect 3 0 7 0;
#X connect 3 1 7 4;
#X connect 4 0 7 0;
#X connect 4 1 7 5;
#X connect 5 0 7 0;
#X connect 5 1 7 6;
#X connect 6 0 7 0;
#X connect 6 1 7 7;
#X connect 7 0 8 0;
#X connect 9 0 7 0;
#X connect 10 0 0 0;
#X connect 11 0 1 0;
#X connect 12 0 2 0;
#X connect 13 0 3 0;
#X connect 14 0 4 0;
#X connect 15 0 5 0;
#X connect 16 0 6 0;
