#N canvas 526 266 530 427 10;
#X obj 41 77 % 2;
#X obj 76 88 -;
#X obj 79 119 div 2;
#X obj 76 180 % 2;
#X obj 126 103 -;
#X obj 127 130 div 2;
#X obj 142 151 % 2;
#X obj 141 177 -;
#X obj 123 202 div 2;
#X obj 199 137 % 2;
#X obj 203 179 -;
#X obj 197 207 div 2;
#X obj 249 133 % 2;
#X obj 284 144 -;
#X obj 287 175 div 2;
#X obj 267 208 % 2;
#X obj 334 159 -;
#X obj 335 186 div 2;
#X obj 350 207 % 2;
#X obj 349 233 -;
#X obj 331 258 div 2;
#X obj 407 193 % 2;
#X obj 77 373 outlet;
#X obj 124 372 outlet;
#X obj 171 372 outlet;
#X obj 216 371 outlet;
#X obj 263 370 outlet;
#X obj 310 369 outlet;
#X obj 357 369 outlet;
#X obj 402 368 outlet;
#X obj 96 -2 inlet num;
#X obj 92 28 expr if ($f1 < 0 \, $f1 + 256 \, $f1);
#X connect 0 0 1 1;
#X connect 0 0 29 0;
#X connect 1 0 2 0;
#X connect 2 0 3 0;
#X connect 2 0 4 0;
#X connect 3 0 4 1;
#X connect 3 0 28 0;
#X connect 4 0 5 0;
#X connect 5 0 6 0;
#X connect 5 0 7 0;
#X connect 6 0 7 1;
#X connect 6 0 27 0;
#X connect 7 0 8 0;
#X connect 8 0 9 0;
#X connect 8 0 10 0;
#X connect 9 0 10 1;
#X connect 9 0 26 0;
#X connect 10 0 11 0;
#X connect 11 0 12 0;
#X connect 11 0 13 0;
#X connect 12 0 13 1;
#X connect 12 0 25 0;
#X connect 13 0 14 0;
#X connect 14 0 15 0;
#X connect 14 0 16 0;
#X connect 15 0 16 1;
#X connect 15 0 24 0;
#X connect 16 0 17 0;
#X connect 17 0 18 0;
#X connect 17 0 19 0;
#X connect 18 0 19 1;
#X connect 18 0 23 0;
#X connect 19 0 20 0;
#X connect 20 0 21 0;
#X connect 21 0 22 0;
#X connect 30 0 31 0;
#X connect 31 0 0 0;
#X connect 31 0 1 0;
