#N canvas 459 448 450 300 10;
#X obj 222 52 inlet sel;
#X obj 132 200 outlet a;
#X obj 230 199 outlet b;
#X obj 141 50 inlet a;
#X obj 165 109 muxer;
#X obj 214 110 muxer;
#X connect 0 0 4 2;
#X connect 0 0 5 2;
#X connect 3 0 4 1;
#X connect 3 0 5 0;
#X connect 4 0 1 0;
#X connect 5 0 2 0;
