#N canvas 822 314 450 300 10;
#X obj 169 98 dmux;
#X obj 125 57 inlet;
#X obj 135 139 dmux;
#X obj 215 138 dmux;
#X obj 85 196 outlet a;
#X obj 153 196 outlet b;
#X obj 217 199 outlet c;
#X obj 283 199 outlet d;
#X obj 166 55 inlet MSB;
#X obj 239 54 inlet LSB;
#X connect 0 0 2 0;
#X connect 0 1 3 0;
#X connect 1 0 0 0;
#X connect 2 0 4 0;
#X connect 2 1 5 0;
#X connect 3 0 6 0;
#X connect 3 1 7 0;
#X connect 8 0 0 1;
#X connect 9 0 2 1;
#X connect 9 0 3 1;
