#N canvas 516 389 690 411 10;
#X obj 96 234 outlet a;
#X obj 157 234 outlet b;
#X obj 214 234 outlet c;
#X obj 276 234 outlet d;
#X obj 335 234 outlet e;
#X obj 392 234 outlet f;
#X obj 449 234 outlet g;
#X obj 504 234 outlet h;
#X obj 214 46 inlet in;
#X obj 342 44 inlet one;
#X obj 308 96 dmux;
#X obj 348 139 dmux4way;
#X obj 275 45 inlet MSB;
#X obj 413 43 inlet LSB;
#X obj 250 144 dmux4way;
#X connect 8 0 10 0;
#X connect 9 0 14 1;
#X connect 9 0 11 1;
#X connect 10 0 14 0;
#X connect 10 1 11 0;
#X connect 11 0 4 0;
#X connect 11 1 5 0;
#X connect 11 2 6 0;
#X connect 11 3 7 0;
#X connect 12 0 10 1;
#X connect 13 0 14 2;
#X connect 13 0 11 2;
#X connect 14 0 0 0;
#X connect 14 1 1 0;
#X connect 14 2 2 0;
#X connect 14 3 3 0;
