#N canvas 457 380 450 300 10;
#X obj 123 89 halfadder;
#X obj 90 46 inlet a;
#X obj 170 45 inlet b;
#X obj 180 233 outlet sum;
#X obj 65 229 outlet carry;
#X obj 100 192 or;
#X obj 246 46 inlet c;
#X obj 151 149 halfadder;
#X connect 0 0 5 0;
#X connect 0 1 7 0;
#X connect 1 0 0 0;
#X connect 2 0 0 1;
#X connect 5 0 4 0;
#X connect 6 0 7 1;
#X connect 7 0 5 1;
#X connect 7 1 3 0;
