#N canvas 690 403 450 300 10;
#X obj 120 156 add8bitchip;
#X obj 1 230 outlet;
#X obj 48 229 outlet;
#X obj 96 229 outlet;
#X obj 145 229 outlet;
#X obj 302 230 outlet;
#X obj 351 231 outlet;
#X obj 196 229 outlet;
#X obj 248 230 outlet;
#X obj 21 46 inlet;
#X obj 67 46 inlet;
#X obj -18 45 inlet;
#X obj 113 44 inlet;
#X obj 157 44 inlet;
#X obj 199 42 inlet;
#X obj 243 38 inlet;
#X obj 288 41 inlet;
#X obj 354 13 loadbang;
#X obj 283 117 1;
#X obj 252 101 0;
#X connect 0 0 1 0;
#X connect 0 1 2 0;
#X connect 0 2 3 0;
#X connect 0 3 4 0;
#X connect 0 4 7 0;
#X connect 0 5 8 0;
#X connect 0 6 5 0;
#X connect 0 7 6 0;
#X connect 9 0 0 1;
#X connect 10 0 0 2;
#X connect 11 0 0 0;
#X connect 12 0 0 3;
#X connect 13 0 0 4;
#X connect 14 0 0 5;
#X connect 15 0 0 6;
#X connect 16 0 0 7;
#X connect 17 0 18 0;
#X connect 17 0 19 0;
#X connect 18 0 0 15;
#X connect 19 0 0 8;
#X connect 19 0 0 9;
#X connect 19 0 0 10;
#X connect 19 0 0 11;
#X connect 19 0 0 12;
#X connect 19 0 0 13;
#X connect 19 0 0 14;
#X coords 0 300 1 299 300 60 0;
