#N canvas 913 429 450 300 10;
#X obj 236 58 not;
#X obj 49 27 inlet;
#X obj 118 28 inlet;
#X obj 236 27 inlet;
#X obj 152 192 or;
#X obj 164 125 and;
#X obj 118 130 and;
#X obj 147 229 outlet;
#X connect 0 0 5 1;
#X connect 1 0 6 0;
#X connect 2 0 5 0;
#X connect 3 0 0 0;
#X connect 3 0 6 1;
#X connect 4 0 7 0;
#X connect 5 0 4 1;
#X connect 6 0 4 0;
