#N canvas 364 372 963 445 10;
#X obj 282 171 muxer8;
#X obj 63 27 inlet;
#X obj 22 27 inlet;
#X obj 102 27 inlet;
#X obj 142 27 inlet;
#X obj 250 25 inlet;
#X obj 209 25 inlet;
#X obj 288 25 inlet;
#X obj 328 25 inlet;
#X obj 65 62 inlet;
#X obj 24 62 inlet;
#X obj 104 62 inlet;
#X obj 144 62 inlet;
#X obj 252 60 inlet;
#X obj 211 60 inlet;
#X obj 290 60 inlet;
#X obj 330 60 inlet;
#X obj 771 35 inlet;
#X obj 814 34 inlet;
#X obj 211 350 outlet;
#X obj 262 350 outlet;
#X obj 312 350 outlet;
#X obj 361 350 outlet;
#X obj 407 350 outlet;
#X obj 454 350 outlet;
#X obj 514 350 outlet;
#X obj 558 350 outlet;
#X obj 553 146 muxer8;
#X obj 445 26 inlet;
#X obj 404 26 inlet;
#X obj 484 26 inlet;
#X obj 524 26 inlet;
#X obj 632 24 inlet;
#X obj 591 24 inlet;
#X obj 670 24 inlet;
#X obj 710 24 inlet;
#X obj 447 61 inlet;
#X obj 406 61 inlet;
#X obj 486 61 inlet;
#X obj 526 61 inlet;
#X obj 634 59 inlet;
#X obj 593 59 inlet;
#X obj 672 59 inlet;
#X obj 712 59 inlet;
#X obj 375 249 muxer8;
#X connect 0 0 44 8;
#X connect 0 1 44 9;
#X connect 0 2 44 10;
#X connect 0 3 44 11;
#X connect 0 4 44 12;
#X connect 0 5 44 13;
#X connect 0 6 44 14;
#X connect 0 7 44 15;
#X connect 1 0 0 10;
#X connect 2 0 0 8;
#X connect 3 0 0 12;
#X connect 4 0 0 14;
#X connect 5 0 0 2;
#X connect 6 0 0 0;
#X connect 7 0 0 4;
#X connect 8 0 0 6;
#X connect 9 0 0 11;
#X connect 10 0 0 9;
#X connect 11 0 0 13;
#X connect 12 0 0 15;
#X connect 13 0 0 3;
#X connect 14 0 0 1;
#X connect 15 0 0 5;
#X connect 16 0 0 7;
#X connect 17 0 44 16;
#X connect 18 0 0 16;
#X connect 18 0 27 16;
#X connect 27 0 44 0;
#X connect 27 1 44 1;
#X connect 27 2 44 2;
#X connect 27 3 44 3;
#X connect 27 4 44 4;
#X connect 27 5 44 5;
#X connect 27 6 44 6;
#X connect 27 7 44 7;
#X connect 28 0 27 10;
#X connect 29 0 27 8;
#X connect 30 0 27 12;
#X connect 31 0 27 14;
#X connect 32 0 27 2;
#X connect 33 0 27 0;
#X connect 34 0 27 4;
#X connect 35 0 27 6;
#X connect 36 0 27 11;
#X connect 37 0 27 9;
#X connect 38 0 27 13;
#X connect 39 0 27 15;
#X connect 40 0 27 3;
#X connect 41 0 27 1;
#X connect 42 0 27 5;
#X connect 43 0 27 7;
#X connect 44 0 19 0;
#X connect 44 1 20 0;
#X connect 44 2 21 0;
#X connect 44 3 22 0;
#X connect 44 4 23 0;
#X connect 44 5 24 0;
#X connect 44 6 25 0;
#X connect 44 7 26 0;
#X coords 0 445 1 444 400 60 0;
