#N canvas 450 357 926 300 10;
#X obj 230 158 muxer;
#X obj 271 161 muxer;
#X obj 316 162 muxer;
#X obj 355 161 muxer;
#X obj 404 161 muxer;
#X obj 445 164 muxer;
#X obj 490 165 muxer;
#X obj 529 164 muxer;
#X obj 266 229 outlet;
#X obj 221 229 outlet;
#X obj 314 229 outlet;
#X obj 364 231 outlet;
#X obj 461 236 outlet;
#X obj 416 234 outlet;
#X obj 505 239 outlet;
#X obj 558 237 outlet;
#X obj 42 92 inlet;
#X obj 81 92 inlet;
#X obj 156 92 inlet;
#X obj 118 92 inlet;
#X obj 201 92 inlet;
#X obj 240 92 inlet;
#X obj 315 92 inlet;
#X obj 277 92 inlet;
#X obj 375 92 inlet;
#X obj 414 92 inlet;
#X obj 489 92 inlet;
#X obj 451 92 inlet;
#X obj 534 92 inlet;
#X obj 573 92 inlet;
#X obj 648 92 inlet;
#X obj 610 92 inlet;
#X obj 738 95 inlet sel;
#X connect 0 0 9 0;
#X connect 1 0 8 0;
#X connect 2 0 10 0;
#X connect 3 0 11 0;
#X connect 4 0 13 0;
#X connect 5 0 12 0;
#X connect 6 0 14 0;
#X connect 7 0 15 0;
#X connect 16 0 0 0;
#X connect 17 0 1 0;
#X connect 18 0 3 0;
#X connect 19 0 2 0;
#X connect 20 0 4 0;
#X connect 21 0 5 0;
#X connect 22 0 7 0;
#X connect 23 0 6 0;
#X connect 24 0 0 1;
#X connect 25 0 1 1;
#X connect 26 0 3 1;
#X connect 27 0 2 1;
#X connect 28 0 4 1;
#X connect 29 0 5 1;
#X connect 30 0 7 1;
#X connect 31 0 6 1;
#X connect 32 0 7 2;
#X connect 32 0 6 2;
#X connect 32 0 5 2;
#X connect 32 0 4 2;
#X connect 32 0 3 2;
#X connect 32 0 2 2;
#X connect 32 0 1 2;
#X connect 32 0 0 2;
#X coords 0 300 1 299 300 60 0;
