#N canvas 22 89 1552 598 10;
#X obj 452 339 muxer4way8;
#X obj 1416 -58 inlet;
#X obj 1454 -59 inlet;
#X obj 1495 -59 inlet;
#X obj 16 -57 inlet;
#X obj 19 -36 inlet;
#X obj 56 -57 inlet;
#X obj 61 -37 inlet;
#X obj 98 -58 inlet;
#X obj 104 -38 inlet;
#X obj 139 -58 inlet;
#X obj 146 -39 inlet;
#X obj 198 -59 inlet;
#X obj 203 -39 inlet;
#X obj 238 -60 inlet;
#X obj 245 -39 inlet;
#X obj 278 -61 inlet;
#X obj 288 -40 inlet;
#X obj 320 -63 inlet;
#X obj 328 -40 inlet;
#X obj 369 -62 inlet;
#X obj 373 -40 inlet;
#X obj 411 -62 inlet;
#X obj 416 -41 inlet;
#X obj 455 -62 inlet;
#X obj 459 -42 inlet;
#X obj 497 -64 inlet;
#X obj 502 -44 inlet;
#X obj 540 -67 inlet;
#X obj 544 -46 inlet;
#X obj 580 -67 inlet;
#X obj 584 -47 inlet;
#X obj 620 -69 inlet;
#X obj 624 -48 inlet;
#X obj 663 -69 inlet;
#X obj 667 -48 inlet;
#X obj 412 467 outlet;
#X obj 461 467 outlet;
#X obj 510 467 outlet;
#X obj 563 467 outlet;
#X obj 689 467 outlet;
#X obj 734 467 outlet;
#X obj 847 467 outlet;
#X obj 794 467 outlet;
#X obj 641 395 muxer8;
#X obj 880 261 muxer4way8;
#X obj 740 -70 inlet;
#X obj 745 -47 inlet;
#X obj 780 -70 inlet;
#X obj 783 -47 inlet;
#X obj 821 -72 inlet;
#X obj 824 -46 inlet;
#X obj 862 -72 inlet;
#X obj 867 -50 inlet;
#X obj 905 -70 inlet;
#X obj 911 -47 inlet;
#X obj 945 -69 inlet;
#X obj 951 -47 inlet;
#X obj 985 -70 inlet;
#X obj 989 -49 inlet;
#X obj 1027 -70 inlet;
#X obj 1028 -48 inlet;
#X obj 1069 -70 inlet;
#X obj 1073 -46 inlet;
#X obj 1112 -69 inlet;
#X obj 1119 -48 inlet;
#X obj 1156 -70 inlet;
#X obj 1161 -49 inlet;
#X obj 1195 -72 inlet;
#X obj 1202 -51 inlet;
#X obj 1238 -73 inlet;
#X obj 1244 -53 inlet;
#X obj 1279 -74 inlet;
#X obj 1284 -51 inlet;
#X obj 1319 -73 inlet;
#X obj 1325 -51 inlet;
#X obj 1358 -74 inlet;
#X obj 1367 -52 inlet;
#X connect 0 0 44 8;
#X connect 0 1 44 9;
#X connect 0 2 44 10;
#X connect 0 3 44 11;
#X connect 0 4 44 12;
#X connect 0 5 44 13;
#X connect 0 6 44 14;
#X connect 0 7 44 15;
#X connect 1 0 44 16;
#X connect 2 0 0 32;
#X connect 2 0 45 32;
#X connect 3 0 0 33;
#X connect 3 0 45 33;
#X connect 4 0 0 0;
#X connect 5 0 0 1;
#X connect 6 0 0 2;
#X connect 7 0 0 3;
#X connect 8 0 0 4;
#X connect 9 0 0 5;
#X connect 10 0 0 6;
#X connect 11 0 0 7;
#X connect 12 0 0 8;
#X connect 13 0 0 9;
#X connect 14 0 0 10;
#X connect 15 0 0 11;
#X connect 16 0 0 12;
#X connect 17 0 0 13;
#X connect 18 0 0 14;
#X connect 19 0 0 15;
#X connect 20 0 0 16;
#X connect 21 0 0 17;
#X connect 22 0 0 18;
#X connect 23 0 0 19;
#X connect 24 0 0 20;
#X connect 25 0 0 21;
#X connect 26 0 0 22;
#X connect 27 0 0 23;
#X connect 28 0 0 24;
#X connect 29 0 0 25;
#X connect 30 0 0 26;
#X connect 31 0 0 27;
#X connect 32 0 0 28;
#X connect 33 0 0 29;
#X connect 34 0 0 30;
#X connect 35 0 0 31;
#X connect 44 0 36 0;
#X connect 44 1 37 0;
#X connect 44 2 38 0;
#X connect 44 3 39 0;
#X connect 44 4 40 0;
#X connect 44 5 41 0;
#X connect 44 6 43 0;
#X connect 44 7 42 0;
#X connect 45 0 44 0;
#X connect 45 1 44 1;
#X connect 45 2 44 2;
#X connect 45 3 44 3;
#X connect 45 4 44 4;
#X connect 45 5 44 5;
#X connect 45 6 44 6;
#X connect 45 7 44 7;
#X connect 46 0 45 0;
#X connect 47 0 45 1;
#X connect 48 0 45 2;
#X connect 49 0 45 3;
#X connect 50 0 45 4;
#X connect 51 0 45 5;
#X connect 52 0 45 6;
#X connect 53 0 45 7;
#X connect 54 0 45 8;
#X connect 55 0 45 9;
#X connect 56 0 45 10;
#X connect 57 0 45 11;
#X connect 58 0 45 12;
#X connect 59 0 45 13;
#X connect 60 0 45 14;
#X connect 61 0 45 15;
#X connect 62 0 45 16;
#X connect 63 0 45 17;
#X connect 64 0 45 18;
#X connect 65 0 45 19;
#X connect 66 0 45 20;
#X connect 67 0 45 21;
#X connect 68 0 45 22;
#X connect 69 0 45 23;
#X connect 70 0 45 24;
#X connect 71 0 45 25;
#X connect 72 0 45 26;
#X connect 73 0 45 27;
#X connect 74 0 45 28;
#X connect 75 0 45 29;
#X connect 76 0 45 30;
#X connect 77 0 45 31;
#X coords 0 598 1 597 85 60 0;
