#N canvas 676 538 450 300 10;
#X obj 33 55 inlet;
#X obj 108 54 inlet;
#X obj 72 53 inlet;
#X obj 148 53 inlet;
#X obj 223 52 inlet;
#X obj 187 54 inlet;
#X obj 299 50 inlet;
#X obj 263 52 inlet;
#X obj 24 182 outlet;
#X obj 68 182 outlet;
#X obj 113 182 outlet;
#X obj 158 183 outlet;
#X obj 205 185 outlet;
#X obj 249 185 outlet;
#X obj 294 185 outlet;
#X obj 339 186 outlet;
#X obj 52 117 not;
#X obj 81 117 not;
#X obj 111 117 not;
#X obj 155 117 not;
#X obj 196 118 not;
#X obj 228 118 not;
#X obj 255 118 not;
#X obj 285 118 not;
#X connect 0 0 16 0;
#X connect 1 0 18 0;
#X connect 2 0 17 0;
#X connect 3 0 19 0;
#X connect 4 0 21 0;
#X connect 5 0 20 0;
#X connect 6 0 23 0;
#X connect 7 0 22 0;
#X connect 16 0 8 0;
#X connect 17 0 9 0;
#X connect 18 0 10 0;
#X connect 19 0 11 0;
#X connect 20 0 12 0;
#X connect 21 0 13 0;
#X connect 22 0 14 0;
#X connect 23 0 15 0;
