#N canvas 790 354 450 300 10;
#X obj 178 135 |;
#X obj 186 78 t b f;
#X obj 134 37 inlet;
#X obj 172 174 outlet;
#X obj 181 35 inlet;
#X connect 0 0 3 0;
#X connect 1 0 0 0;
#X connect 1 1 0 1;
#X connect 2 0 0 0;
#X connect 4 0 1 0;
