#N canvas 516 420 882 300 10;
#X obj 100 92 inlet;
#X obj 55 91 inlet;
#X obj 145 96 inlet;
#X obj 189 96 inlet;
#X obj 277 92 inlet;
#X obj 236 93 inlet;
#X obj 326 97 inlet;
#X obj 370 97 inlet;
#X obj 459 94 inlet;
#X obj 418 94 inlet;
#X obj 508 99 inlet;
#X obj 552 99 inlet;
#X obj 640 95 inlet;
#X obj 599 96 inlet;
#X obj 689 100 inlet;
#X obj 733 100 inlet;
#X obj 35 220 outlet;
#X obj 86 218 outlet;
#X obj 134 218 outlet;
#X obj 185 219 outlet;
#X obj 229 218 outlet;
#X obj 280 216 outlet;
#X obj 328 216 outlet;
#X obj 379 217 outlet;
#X obj 59 145 or;
#X obj 94 142 or;
#X obj 141 143 or;
#X obj 182 143 or;
#X obj 220 142 or;
#X obj 260 139 or;
#X obj 319 141 or;
#X obj 371 144 or;
#X connect 0 0 25 1;
#X connect 1 0 24 1;
#X connect 2 0 26 1;
#X connect 3 0 27 1;
#X connect 4 0 29 1;
#X connect 5 0 28 1;
#X connect 6 0 30 1;
#X connect 7 0 31 1;
#X connect 8 0 25 0;
#X connect 9 0 24 0;
#X connect 10 0 26 0;
#X connect 11 0 27 0;
#X connect 12 0 29 0;
#X connect 13 0 28 0;
#X connect 14 0 30 0;
#X connect 15 0 31 0;
#X connect 24 0 16 0;
#X connect 25 0 17 0;
#X connect 26 0 18 0;
#X connect 27 0 19 0;
#X connect 28 0 20 0;
#X connect 29 0 21 0;
#X connect 30 0 22 0;
#X connect 31 0 23 0;
