#N canvas 712 342 612 300 10;
#X obj 45 39 inlet;
#X obj 69 75 or;
#X obj 96 38 inlet;
#X obj 163 37 inlet;
#X obj 189 68 or;
#X obj 234 37 inlet;
#X obj 287 35 inlet;
#X obj 311 66 or;
#X obj 342 34 inlet;
#X obj 405 33 inlet;
#X obj 476 33 inlet;
#X obj 432 66 or;
#X obj 133 123 or;
#X obj 364 117 or;
#X obj 239 188 or;
#X obj 238 228 outlet;
#X connect 0 0 1 0;
#X connect 1 0 12 0;
#X connect 2 0 1 1;
#X connect 3 0 4 0;
#X connect 4 0 12 1;
#X connect 5 0 4 1;
#X connect 6 0 7 0;
#X connect 7 0 13 0;
#X connect 8 0 7 1;
#X connect 9 0 11 0;
#X connect 10 0 11 1;
#X connect 11 0 13 1;
#X connect 12 0 14 0;
#X connect 13 0 14 1;
#X connect 14 0 15 0;
#X coords 0 300 1 299 85 60 0;
