#N canvas 683 108 951 763 10;
#X obj 86 41 inlet;
#X obj 43 41 inlet;
#X obj 133 41 inlet;
#X obj 171 41 inlet;
#X obj 253 41 inlet;
#X obj 210 41 inlet;
#X obj 300 41 inlet;
#X obj 338 41 inlet;
#X obj 386 41 inlet inc;
#X obj 455 41 inlet load;
#X obj 529 42 inlet reset;
#X obj 118 644 inc8;
#X obj 438 491 register;
#X obj 395 691 outlet;
#X obj 443 691 outlet;
#X obj 486 693 outlet;
#X obj 532 695 outlet;
#X obj 584 696 outlet;
#X obj 638 697 outlet;
#X obj 685 696 outlet;
#X obj 733 694 outlet;
#X obj 267 273 muxer8;
#X obj 759 75 loadbang;
#X obj 783 111 1;
#X obj 748 111 0;
#X obj 90 157 muxer8;
#X obj 378 326 muxer8;
#X obj 397 373 pipe 1 2 3 4 5 6 7 8 5;
#X obj 708 147 s \$1-false;
#X obj 376 252 r \$1-false;
#X obj 791 145 s \$2-true;
#X obj 525 471 r \$2-true;
#X connect 0 0 21 1;
#X connect 1 0 21 0;
#X connect 2 0 21 2;
#X connect 3 0 21 3;
#X connect 4 0 21 5;
#X connect 5 0 21 4;
#X connect 6 0 21 6;
#X connect 7 0 21 7;
#X connect 8 0 25 16;
#X connect 9 0 21 16;
#X connect 10 0 26 16;
#X connect 11 0 25 0;
#X connect 11 1 25 1;
#X connect 11 2 25 2;
#X connect 11 3 25 3;
#X connect 11 4 25 4;
#X connect 11 5 25 5;
#X connect 11 6 25 6;
#X connect 11 7 25 7;
#X connect 12 0 11 0;
#X connect 12 0 13 0;
#X connect 12 0 25 8;
#X connect 12 1 11 1;
#X connect 12 1 14 0;
#X connect 12 1 25 9;
#X connect 12 2 11 2;
#X connect 12 2 15 0;
#X connect 12 2 25 10;
#X connect 12 3 11 3;
#X connect 12 3 16 0;
#X connect 12 3 25 11;
#X connect 12 4 11 4;
#X connect 12 4 17 0;
#X connect 12 4 25 12;
#X connect 12 5 11 5;
#X connect 12 5 18 0;
#X connect 12 5 25 13;
#X connect 12 6 11 6;
#X connect 12 6 19 0;
#X connect 12 6 25 14;
#X connect 12 7 11 7;
#X connect 12 7 20 0;
#X connect 12 7 25 15;
#X connect 21 0 26 8;
#X connect 21 1 26 9;
#X connect 21 2 26 10;
#X connect 21 3 26 11;
#X connect 21 4 26 12;
#X connect 21 5 26 13;
#X connect 21 6 26 14;
#X connect 21 7 26 15;
#X connect 22 0 24 0;
#X connect 22 0 23 0;
#X connect 23 0 30 0;
#X connect 24 0 28 0;
#X connect 25 0 21 8;
#X connect 25 1 21 9;
#X connect 25 2 21 10;
#X connect 25 3 21 11;
#X connect 25 4 21 12;
#X connect 25 5 21 13;
#X connect 25 6 21 14;
#X connect 25 7 21 15;
#X connect 26 0 27 0;
#X connect 26 1 27 1;
#X connect 26 2 27 2;
#X connect 26 3 27 3;
#X connect 26 4 27 4;
#X connect 26 5 27 5;
#X connect 26 6 27 6;
#X connect 26 7 27 7;
#X connect 27 0 12 0;
#X connect 27 1 12 1;
#X connect 27 2 12 2;
#X connect 27 3 12 3;
#X connect 27 4 12 4;
#X connect 27 5 12 5;
#X connect 27 6 12 6;
#X connect 27 7 12 7;
#X connect 29 0 26 0;
#X connect 29 0 26 1;
#X connect 29 0 26 2;
#X connect 29 0 26 3;
#X connect 29 0 26 4;
#X connect 29 0 26 5;
#X connect 29 0 26 6;
#X connect 29 0 26 7;
#X connect 31 0 12 8;
#X coords 0 0 1 1 85 60 0;
