#N canvas 385 109 886 557 10;
#X obj 63 16 inlet;
#X obj 57 -5 inlet;
#X obj 67 37 inlet;
#X obj 94 -27 inlet;
#X obj 102 -6 inlet;
#X obj 111 17 inlet;
#X obj 117 40 inlet;
#X obj 55 -27 inlet;
#X obj 442 453 outlet;
#X obj 485 452 outlet;
#X obj 529 451 outlet;
#X obj 572 450 outlet;
#X obj 272 457 outlet;
#X obj 315 456 outlet;
#X obj 359 455 outlet;
#X obj 402 454 outlet;
#X obj 275 -18 inlet;
#X obj 311 -19 inlet;
#X obj 350 -19 inlet;
#X obj 391 -18 inlet;
#X obj 430 -19 inlet;
#X obj 470 -18 inlet;
#X obj 523 -14 inlet;
#X obj -16 -2 s \$1-input1;
#X obj -19 22 s \$1-input2;
#X obj -20 45 s \$1-input3;
#X obj -16 66 s \$1-input4;
#X obj 149 -5 s \$1-input5;
#X obj 151 18 s \$1-input6;
#X obj 156 38 s \$1-input7;
#X obj 161 62 s \$1-input8;
#X obj 292 15 dmux8way;
#X obj 292 42 s \$1-load1;
#X obj 292 64 s \$1-load2;
#X obj 292 86 s \$1-load3;
#X obj 292 108 s \$1-load4;
#X obj 364 42 s \$1-load5;
#X obj 364 64 s \$1-load6;
#X obj 364 86 s \$1-load7;
#X obj 364 108 s \$1-load8;
#X obj 445 41 s \$1-addr2;
#X obj 445 61 s \$1-addr1;
#X obj 445 81 s \$1-addr0;
#X obj 533 40 s \$1-addrMSB;
#X obj 533 80 s \$1-addrLSB;
#X obj 533 60 s \$1-addrMiddle;
#X obj 424 349 muxer8way8;
#X obj 294 152 r \$1-F1;
#X obj 622 271 r \$1-addr2;
#X obj 621 294 r \$1-addr1;
#X obj 621 314 r \$1-addr0;
#N canvas 667 186 809 427 firstmux 0;
#X obj 112 228 muxer8way8;
#X obj -264 123 r \$1-out00;
#X obj -264 144 r \$1-out01;
#X obj -264 165 r \$1-out02;
#X obj -264 186 r \$1-out03;
#X obj -195 123 r \$1-out04;
#X obj -194 144 r \$1-out05;
#X obj -196 165 r \$1-out06;
#X obj -197 185 r \$1-out07;
#X obj -124 123 r \$1-out10;
#X obj -124 144 r \$1-out11;
#X obj -124 165 r \$1-out12;
#X obj -124 186 r \$1-out13;
#X obj -55 122 r \$1-out14;
#X obj -55 144 r \$1-out15;
#X obj -55 166 r \$1-out16;
#X obj -55 188 r \$1-out17;
#X obj 16 122 r \$1-out20;
#X obj 16 144 r \$1-out21;
#X obj 16 166 r \$1-out22;
#X obj 16 188 r \$1-out23;
#X obj 86 122 r \$1-out24;
#X obj 86 144 r \$1-out25;
#X obj 86 166 r \$1-out26;
#X obj 86 188 r \$1-out27;
#X obj 157 121 r \$1-out30;
#X obj 157 143 r \$1-out31;
#X obj 157 165 r \$1-out32;
#X obj 157 187 r \$1-out33;
#X obj 224 121 r \$1-out34;
#X obj 224 143 r \$1-out35;
#X obj 224 165 r \$1-out36;
#X obj 224 187 r \$1-out37;
#X obj -18 31 r \$1-out40;
#X obj -18 53 r \$1-out41;
#X obj -18 75 r \$1-out42;
#X obj -18 97 r \$1-out43;
#X obj 49 31 r \$1-out44;
#X obj 49 53 r \$1-out45;
#X obj 49 75 r \$1-out46;
#X obj 49 97 r \$1-out47;
#X obj 119 29 r \$1-out50;
#X obj 119 51 r \$1-out51;
#X obj 119 73 r \$1-out52;
#X obj 119 95 r \$1-out53;
#X obj 186 29 r \$1-out54;
#X obj 186 51 r \$1-out55;
#X obj 186 73 r \$1-out56;
#X obj 186 95 r \$1-out57;
#X obj 257 27 r \$1-out60;
#X obj 257 49 r \$1-out61;
#X obj 257 71 r \$1-out62;
#X obj 257 93 r \$1-out63;
#X obj 324 27 r \$1-out64;
#X obj 324 49 r \$1-out65;
#X obj 324 71 r \$1-out66;
#X obj 324 93 r \$1-out67;
#X obj 396 27 r \$1-out70;
#X obj 396 49 r \$1-out71;
#X obj 396 71 r \$1-out72;
#X obj 396 93 r \$1-out73;
#X obj 463 27 r \$1-out74;
#X obj 463 49 r \$1-out75;
#X obj 463 71 r \$1-out76;
#X obj 463 93 r \$1-out77;
#X obj 310 150 r \$1-addrMSB;
#X obj 309 173 r \$1-addrMiddle;
#X obj 309 193 r \$1-addrLSB;
#X obj -57 255 s \$1-F1;
#X obj -3 255 s \$1-F2;
#X obj 46 256 s \$1-F3;
#X obj 101 255 s \$1-F4;
#X obj 155 255 s \$1-F5;
#X obj 209 255 s \$1-F6;
#X obj 261 255 s \$1-F7;
#X obj 309 256 s \$1-F8;
#X connect 0 0 68 0;
#X connect 0 1 69 0;
#X connect 0 2 70 0;
#X connect 0 3 71 0;
#X connect 0 4 72 0;
#X connect 0 5 73 0;
#X connect 0 6 74 0;
#X connect 0 7 75 0;
#X connect 1 0 0 0;
#X connect 2 0 0 1;
#X connect 3 0 0 2;
#X connect 4 0 0 3;
#X connect 5 0 0 4;
#X connect 6 0 0 5;
#X connect 7 0 0 6;
#X connect 8 0 0 7;
#X connect 9 0 0 8;
#X connect 10 0 0 9;
#X connect 11 0 0 10;
#X connect 12 0 0 11;
#X connect 13 0 0 12;
#X connect 14 0 0 13;
#X connect 15 0 0 14;
#X connect 16 0 0 15;
#X connect 17 0 0 16;
#X connect 18 0 0 17;
#X connect 19 0 0 18;
#X connect 20 0 0 19;
#X connect 21 0 0 20;
#X connect 22 0 0 21;
#X connect 23 0 0 22;
#X connect 24 0 0 23;
#X connect 25 0 0 24;
#X connect 26 0 0 25;
#X connect 27 0 0 26;
#X connect 28 0 0 27;
#X connect 29 0 0 28;
#X connect 30 0 0 29;
#X connect 31 0 0 30;
#X connect 32 0 0 31;
#X connect 33 0 0 32;
#X connect 34 0 0 33;
#X connect 35 0 0 34;
#X connect 36 0 0 35;
#X connect 37 0 0 36;
#X connect 38 0 0 37;
#X connect 39 0 0 38;
#X connect 40 0 0 39;
#X connect 41 0 0 40;
#X connect 42 0 0 41;
#X connect 43 0 0 42;
#X connect 44 0 0 43;
#X connect 45 0 0 44;
#X connect 46 0 0 45;
#X connect 47 0 0 46;
#X connect 48 0 0 47;
#X connect 49 0 0 48;
#X connect 50 0 0 49;
#X connect 51 0 0 50;
#X connect 52 0 0 51;
#X connect 53 0 0 52;
#X connect 54 0 0 53;
#X connect 55 0 0 54;
#X connect 56 0 0 55;
#X connect 57 0 0 56;
#X connect 58 0 0 57;
#X connect 59 0 0 58;
#X connect 60 0 0 59;
#X connect 61 0 0 60;
#X connect 62 0 0 61;
#X connect 63 0 0 62;
#X connect 64 0 0 63;
#X connect 65 0 0 64;
#X connect 66 0 0 65;
#X connect 67 0 0 66;
#X restore -8 130 pd firstmux;
#N canvas 337 0 966 661 rams 0;
#X obj 119 100 ram8;
#X obj 142 33 r \$1-addr2;
#X obj 142 53 r \$1-addr1;
#X obj 142 73 r \$1-addr0;
#X obj -15 16 r \$1-input1;
#X obj -15 37 r \$1-input2;
#X obj -15 58 r \$1-input3;
#X obj -15 79 r \$1-input4;
#X obj 62 16 r \$1-input5;
#X obj 62 37 r \$1-input6;
#X obj 62 58 r \$1-input7;
#X obj 62 79 r \$1-input8;
#X obj 43 121 s \$1-out00;
#X obj 43 142 s \$1-out01;
#X obj 43 163 s \$1-out02;
#X obj 43 184 s \$1-out03;
#X obj 161 118 s \$1-out04;
#X obj 161 140 s \$1-out05;
#X obj 161 162 s \$1-out06;
#X obj 161 184 s \$1-out07;
#X obj 210 72 r \$1-load1;
#X obj 414 91 ram8;
#X obj 437 24 r \$1-addr2;
#X obj 437 44 r \$1-addr1;
#X obj 437 64 r \$1-addr0;
#X obj 280 7 r \$1-input1;
#X obj 280 28 r \$1-input2;
#X obj 280 49 r \$1-input3;
#X obj 280 70 r \$1-input4;
#X obj 357 7 r \$1-input5;
#X obj 357 28 r \$1-input6;
#X obj 357 49 r \$1-input7;
#X obj 357 70 r \$1-input8;
#X obj 728 86 ram8;
#X obj 751 19 r \$1-addr2;
#X obj 751 39 r \$1-addr1;
#X obj 751 59 r \$1-addr0;
#X obj 594 2 r \$1-input1;
#X obj 594 23 r \$1-input2;
#X obj 594 44 r \$1-input3;
#X obj 594 65 r \$1-input4;
#X obj 671 2 r \$1-input5;
#X obj 671 23 r \$1-input6;
#X obj 671 44 r \$1-input7;
#X obj 671 65 r \$1-input8;
#X obj 154 300 ram8;
#X obj 177 233 r \$1-addr2;
#X obj 177 253 r \$1-addr1;
#X obj 177 273 r \$1-addr0;
#X obj 20 216 r \$1-input1;
#X obj 20 237 r \$1-input2;
#X obj 20 258 r \$1-input3;
#X obj 20 279 r \$1-input4;
#X obj 97 216 r \$1-input5;
#X obj 97 237 r \$1-input6;
#X obj 97 258 r \$1-input7;
#X obj 97 279 r \$1-input8;
#X obj 449 291 ram8;
#X obj 472 224 r \$1-addr2;
#X obj 472 244 r \$1-addr1;
#X obj 472 264 r \$1-addr0;
#X obj 315 207 r \$1-input1;
#X obj 315 228 r \$1-input2;
#X obj 315 249 r \$1-input3;
#X obj 315 270 r \$1-input4;
#X obj 392 207 r \$1-input5;
#X obj 392 228 r \$1-input6;
#X obj 392 249 r \$1-input7;
#X obj 392 270 r \$1-input8;
#X obj 763 286 ram8;
#X obj 786 219 r \$1-addr2;
#X obj 786 239 r \$1-addr1;
#X obj 786 259 r \$1-addr0;
#X obj 629 202 r \$1-input1;
#X obj 629 223 r \$1-input2;
#X obj 629 244 r \$1-input3;
#X obj 629 265 r \$1-input4;
#X obj 706 202 r \$1-input5;
#X obj 706 223 r \$1-input6;
#X obj 706 244 r \$1-input7;
#X obj 706 265 r \$1-input8;
#X obj 185 503 ram8;
#X obj 208 436 r \$1-addr2;
#X obj 208 456 r \$1-addr1;
#X obj 208 476 r \$1-addr0;
#X obj 51 419 r \$1-input1;
#X obj 51 440 r \$1-input2;
#X obj 51 461 r \$1-input3;
#X obj 51 482 r \$1-input4;
#X obj 128 419 r \$1-input5;
#X obj 128 440 r \$1-input6;
#X obj 128 461 r \$1-input7;
#X obj 128 482 r \$1-input8;
#X obj 499 498 ram8;
#X obj 522 431 r \$1-addr2;
#X obj 522 451 r \$1-addr1;
#X obj 522 471 r \$1-addr0;
#X obj 365 414 r \$1-input1;
#X obj 365 435 r \$1-input2;
#X obj 365 456 r \$1-input3;
#X obj 365 477 r \$1-input4;
#X obj 442 414 r \$1-input5;
#X obj 442 435 r \$1-input6;
#X obj 442 456 r \$1-input7;
#X obj 442 477 r \$1-input8;
#X obj 505 63 r \$1-load2;
#X obj 819 58 r \$1-load3;
#X obj 245 272 r \$1-load4;
#X obj 540 263 r \$1-load5;
#X obj 854 258 r \$1-load6;
#X obj 276 475 r \$1-load7;
#X obj 590 470 r \$1-load8;
#X obj 338 112 s \$1-out10;
#X obj 338 133 s \$1-out11;
#X obj 338 154 s \$1-out12;
#X obj 338 175 s \$1-out13;
#X obj 456 109 s \$1-out14;
#X obj 456 131 s \$1-out15;
#X obj 456 153 s \$1-out16;
#X obj 456 175 s \$1-out17;
#X obj 652 107 s \$1-out20;
#X obj 652 128 s \$1-out21;
#X obj 652 149 s \$1-out22;
#X obj 652 170 s \$1-out23;
#X obj 770 104 s \$1-out24;
#X obj 770 126 s \$1-out25;
#X obj 770 148 s \$1-out26;
#X obj 770 170 s \$1-out27;
#X obj 78 321 s \$1-out30;
#X obj 78 342 s \$1-out31;
#X obj 78 363 s \$1-out32;
#X obj 78 384 s \$1-out33;
#X obj 196 318 s \$1-out34;
#X obj 196 340 s \$1-out35;
#X obj 196 362 s \$1-out36;
#X obj 196 384 s \$1-out37;
#X obj 373 312 s \$1-out40;
#X obj 373 333 s \$1-out41;
#X obj 373 354 s \$1-out42;
#X obj 373 375 s \$1-out43;
#X obj 491 309 s \$1-out44;
#X obj 491 331 s \$1-out45;
#X obj 491 353 s \$1-out46;
#X obj 491 375 s \$1-out47;
#X obj 687 307 s \$1-out50;
#X obj 687 328 s \$1-out51;
#X obj 687 349 s \$1-out52;
#X obj 687 370 s \$1-out53;
#X obj 805 304 s \$1-out54;
#X obj 805 326 s \$1-out55;
#X obj 805 348 s \$1-out56;
#X obj 805 370 s \$1-out57;
#X obj 109 524 s \$1-out60;
#X obj 109 545 s \$1-out61;
#X obj 109 566 s \$1-out62;
#X obj 109 587 s \$1-out63;
#X obj 227 521 s \$1-out64;
#X obj 227 543 s \$1-out65;
#X obj 227 565 s \$1-out66;
#X obj 227 587 s \$1-out67;
#X obj 423 519 s \$1-out70;
#X obj 423 540 s \$1-out71;
#X obj 423 561 s \$1-out72;
#X obj 423 582 s \$1-out73;
#X obj 541 516 s \$1-out74;
#X obj 541 538 s \$1-out75;
#X obj 541 560 s \$1-out76;
#X obj 541 582 s \$1-out77;
#X connect 0 0 12 0;
#X connect 0 1 13 0;
#X connect 0 2 14 0;
#X connect 0 3 15 0;
#X connect 0 4 16 0;
#X connect 0 5 17 0;
#X connect 0 6 18 0;
#X connect 0 7 19 0;
#X connect 1 0 0 8;
#X connect 2 0 0 9;
#X connect 3 0 0 10;
#X connect 4 0 0 0;
#X connect 5 0 0 1;
#X connect 6 0 0 2;
#X connect 7 0 0 3;
#X connect 8 0 0 4;
#X connect 9 0 0 5;
#X connect 10 0 0 6;
#X connect 11 0 0 7;
#X connect 20 0 0 11;
#X connect 21 0 112 0;
#X connect 21 1 113 0;
#X connect 21 2 114 0;
#X connect 21 3 115 0;
#X connect 21 4 116 0;
#X connect 21 5 117 0;
#X connect 21 6 118 0;
#X connect 21 7 119 0;
#X connect 22 0 21 8;
#X connect 23 0 21 9;
#X connect 24 0 21 10;
#X connect 25 0 21 0;
#X connect 26 0 21 1;
#X connect 27 0 21 2;
#X connect 28 0 21 3;
#X connect 29 0 21 4;
#X connect 30 0 21 5;
#X connect 31 0 21 6;
#X connect 32 0 21 7;
#X connect 33 0 120 0;
#X connect 33 1 121 0;
#X connect 33 2 122 0;
#X connect 33 3 123 0;
#X connect 33 4 124 0;
#X connect 33 5 125 0;
#X connect 33 6 126 0;
#X connect 33 7 127 0;
#X connect 34 0 33 8;
#X connect 35 0 33 9;
#X connect 36 0 33 10;
#X connect 37 0 33 0;
#X connect 38 0 33 1;
#X connect 39 0 33 2;
#X connect 40 0 33 3;
#X connect 41 0 33 4;
#X connect 42 0 33 5;
#X connect 43 0 33 6;
#X connect 44 0 33 7;
#X connect 45 0 128 0;
#X connect 45 1 129 0;
#X connect 45 2 130 0;
#X connect 45 3 131 0;
#X connect 45 4 132 0;
#X connect 45 5 133 0;
#X connect 45 6 134 0;
#X connect 45 7 135 0;
#X connect 46 0 45 8;
#X connect 47 0 45 9;
#X connect 48 0 45 10;
#X connect 49 0 45 0;
#X connect 50 0 45 1;
#X connect 51 0 45 2;
#X connect 52 0 45 3;
#X connect 53 0 45 4;
#X connect 54 0 45 5;
#X connect 55 0 45 6;
#X connect 56 0 45 7;
#X connect 57 0 136 0;
#X connect 57 1 137 0;
#X connect 57 2 138 0;
#X connect 57 3 139 0;
#X connect 57 4 140 0;
#X connect 57 5 141 0;
#X connect 57 6 142 0;
#X connect 57 7 143 0;
#X connect 58 0 57 8;
#X connect 59 0 57 9;
#X connect 60 0 57 10;
#X connect 61 0 57 0;
#X connect 62 0 57 1;
#X connect 63 0 57 2;
#X connect 64 0 57 3;
#X connect 65 0 57 4;
#X connect 66 0 57 5;
#X connect 67 0 57 6;
#X connect 68 0 57 7;
#X connect 69 0 144 0;
#X connect 69 1 145 0;
#X connect 69 2 146 0;
#X connect 69 3 147 0;
#X connect 69 4 148 0;
#X connect 69 5 149 0;
#X connect 69 6 150 0;
#X connect 69 7 151 0;
#X connect 70 0 69 8;
#X connect 71 0 69 9;
#X connect 72 0 69 10;
#X connect 73 0 69 0;
#X connect 74 0 69 1;
#X connect 75 0 69 2;
#X connect 76 0 69 3;
#X connect 77 0 69 4;
#X connect 78 0 69 5;
#X connect 79 0 69 6;
#X connect 80 0 69 7;
#X connect 81 0 152 0;
#X connect 81 1 153 0;
#X connect 81 2 154 0;
#X connect 81 3 155 0;
#X connect 81 4 156 0;
#X connect 81 5 157 0;
#X connect 81 6 158 0;
#X connect 81 7 159 0;
#X connect 82 0 81 8;
#X connect 83 0 81 9;
#X connect 84 0 81 10;
#X connect 85 0 81 0;
#X connect 86 0 81 1;
#X connect 87 0 81 2;
#X connect 88 0 81 3;
#X connect 89 0 81 4;
#X connect 90 0 81 5;
#X connect 91 0 81 6;
#X connect 92 0 81 7;
#X connect 93 0 160 0;
#X connect 93 1 161 0;
#X connect 93 2 162 0;
#X connect 93 3 163 0;
#X connect 93 4 164 0;
#X connect 93 5 165 0;
#X connect 93 6 166 0;
#X connect 93 7 167 0;
#X connect 94 0 93 8;
#X connect 95 0 93 9;
#X connect 96 0 93 10;
#X connect 97 0 93 0;
#X connect 98 0 93 1;
#X connect 99 0 93 2;
#X connect 100 0 93 3;
#X connect 101 0 93 4;
#X connect 102 0 93 5;
#X connect 103 0 93 6;
#X connect 104 0 93 7;
#X connect 105 0 21 11;
#X connect 106 0 33 11;
#X connect 107 0 45 11;
#X connect 108 0 57 11;
#X connect 109 0 69 11;
#X connect 110 0 81 11;
#X connect 111 0 93 11;
#X restore -6 101 pd rams;
#X obj 294 174 r \$1-F2;
#X obj 294 196 r \$1-F3;
#X obj 294 218 r \$1-F4;
#X obj 361 152 r \$1-F5;
#X obj 361 174 r \$1-F6;
#X obj 361 196 r \$1-F7;
#X obj 361 218 r \$1-F8;
#X obj 431 150 r \$1-F1;
#X obj 431 172 r \$1-F2;
#X obj 431 194 r \$1-F3;
#X obj 431 216 r \$1-F4;
#X obj 498 150 r \$1-F5;
#X obj 498 172 r \$1-F6;
#X obj 498 194 r \$1-F7;
#X obj 498 216 r \$1-F8;
#X obj 569 148 r \$1-F1;
#X obj 569 170 r \$1-F2;
#X obj 569 192 r \$1-F3;
#X obj 569 214 r \$1-F4;
#X obj 636 148 r \$1-F5;
#X obj 636 170 r \$1-F6;
#X obj 636 192 r \$1-F7;
#X obj 636 214 r \$1-F8;
#X obj 708 148 r \$1-F1;
#X obj 708 170 r \$1-F2;
#X obj 708 192 r \$1-F3;
#X obj 708 214 r \$1-F4;
#X obj 775 148 r \$1-F5;
#X obj 775 170 r \$1-F6;
#X obj 775 192 r \$1-F7;
#X obj 775 214 r \$1-F8;
#X obj 48 244 r \$1-F1;
#X obj 48 265 r \$1-F2;
#X obj 48 286 r \$1-F3;
#X obj 48 307 r \$1-F4;
#X obj 117 244 r \$1-F5;
#X obj 118 265 r \$1-F6;
#X obj 116 286 r \$1-F7;
#X obj 115 306 r \$1-F8;
#X obj 188 244 r \$1-F1;
#X obj 188 265 r \$1-F2;
#X obj 188 286 r \$1-F3;
#X obj 188 307 r \$1-F4;
#X obj 257 243 r \$1-F5;
#X obj 257 265 r \$1-F6;
#X obj 257 287 r \$1-F7;
#X obj 257 309 r \$1-F8;
#X obj 328 243 r \$1-F1;
#X obj 328 265 r \$1-F2;
#X obj 328 287 r \$1-F3;
#X obj 328 309 r \$1-F4;
#X obj 398 243 r \$1-F5;
#X obj 398 265 r \$1-F6;
#X obj 398 287 r \$1-F7;
#X obj 398 309 r \$1-F8;
#X obj 469 242 r \$1-F1;
#X obj 469 264 r \$1-F2;
#X obj 469 286 r \$1-F3;
#X obj 469 308 r \$1-F4;
#X obj 536 242 r \$1-F5;
#X obj 536 264 r \$1-F6;
#X obj 536 286 r \$1-F7;
#X obj 536 308 r \$1-F8;
#X connect 0 0 25 0;
#X connect 1 0 24 0;
#X connect 2 0 26 0;
#X connect 3 0 27 0;
#X connect 4 0 28 0;
#X connect 5 0 29 0;
#X connect 6 0 30 0;
#X connect 7 0 23 0;
#X connect 16 0 31 1;
#X connect 16 0 43 0;
#X connect 17 0 31 2;
#X connect 17 0 45 0;
#X connect 18 0 31 3;
#X connect 18 0 44 0;
#X connect 19 0 40 0;
#X connect 20 0 41 0;
#X connect 21 0 42 0;
#X connect 22 0 31 0;
#X connect 31 0 32 0;
#X connect 31 1 33 0;
#X connect 31 2 34 0;
#X connect 31 3 35 0;
#X connect 31 4 36 0;
#X connect 31 5 37 0;
#X connect 31 6 38 0;
#X connect 31 7 39 0;
#X connect 46 0 12 0;
#X connect 46 1 13 0;
#X connect 46 2 14 0;
#X connect 46 3 15 0;
#X connect 46 4 8 0;
#X connect 46 5 9 0;
#X connect 46 6 10 0;
#X connect 46 7 11 0;
#X connect 47 0 46 32;
#X connect 48 0 46 64;
#X connect 49 0 46 65;
#X connect 50 0 46 66;
#X connect 53 0 46 33;
#X connect 54 0 46 34;
#X connect 55 0 46 35;
#X connect 56 0 46 36;
#X connect 57 0 46 37;
#X connect 58 0 46 38;
#X connect 59 0 46 39;
#X connect 60 0 46 40;
#X connect 61 0 46 41;
#X connect 62 0 46 42;
#X connect 63 0 46 43;
#X connect 64 0 46 44;
#X connect 65 0 46 45;
#X connect 66 0 46 46;
#X connect 67 0 46 47;
#X connect 68 0 46 48;
#X connect 69 0 46 49;
#X connect 70 0 46 50;
#X connect 71 0 46 51;
#X connect 72 0 46 52;
#X connect 73 0 46 53;
#X connect 74 0 46 54;
#X connect 75 0 46 55;
#X connect 76 0 46 56;
#X connect 77 0 46 57;
#X connect 78 0 46 58;
#X connect 79 0 46 59;
#X connect 80 0 46 60;
#X connect 81 0 46 61;
#X connect 82 0 46 62;
#X connect 83 0 46 63;
#X connect 84 0 46 0;
#X connect 85 0 46 1;
#X connect 86 0 46 2;
#X connect 87 0 46 3;
#X connect 88 0 46 4;
#X connect 89 0 46 5;
#X connect 90 0 46 6;
#X connect 91 0 46 7;
#X connect 92 0 46 8;
#X connect 93 0 46 9;
#X connect 94 0 46 10;
#X connect 95 0 46 11;
#X connect 96 0 46 12;
#X connect 97 0 46 13;
#X connect 98 0 46 14;
#X connect 99 0 46 15;
#X connect 100 0 46 16;
#X connect 101 0 46 17;
#X connect 102 0 46 18;
#X connect 103 0 46 19;
#X connect 104 0 46 20;
#X connect 105 0 46 21;
#X connect 106 0 46 22;
#X connect 107 0 46 23;
#X connect 108 0 46 24;
#X connect 109 0 46 25;
#X connect 110 0 46 26;
#X connect 111 0 46 27;
#X connect 112 0 46 28;
#X connect 113 0 46 29;
#X connect 114 0 46 30;
#X connect 115 0 46 31;
