#N canvas 456 129 874 669 10;
#X obj 251 35 inlet;
#X obj 290 34 inlet;
#X obj 328 34 inlet;
#X obj 383 33 inlet load;
#X obj -115 17 inlet;
#X obj 49 14 inlet;
#X obj -72 15 inlet;
#X obj 89 14 inlet;
#X obj -30 14 inlet;
#X obj 129 14 inlet;
#X obj 10 14 inlet;
#X obj 169 14 inlet;
#X obj 100 598 outlet;
#X obj 280 596 outlet;
#X obj 146 598 outlet;
#X obj 326 596 outlet;
#X obj 193 597 outlet;
#X obj 373 595 outlet;
#X obj 239 597 outlet;
#X obj 419 595 outlet;
#X text 470 597 LSB;
#X text 64 595 MSB;
#X obj 304 79 dmux8way;
#X obj 121 242 register;
#X obj 217 478 muxer8way8;
#X obj 182 243 register;
#X obj 241 242 register;
#X obj 306 243 register;
#X obj 125 279 register;
#X obj 188 279 register;
#X obj 250 278 register;
#X obj 304 277 register;
#X connect 0 0 22 1;
#X connect 0 0 24 64;
#X connect 1 0 22 2;
#X connect 1 0 24 65;
#X connect 2 0 22 3;
#X connect 2 0 24 66;
#X connect 3 0 22 0;
#X connect 4 0 23 0;
#X connect 4 0 25 0;
#X connect 4 0 26 0;
#X connect 4 0 27 0;
#X connect 4 0 28 0;
#X connect 4 0 29 0;
#X connect 4 0 30 0;
#X connect 4 0 31 0;
#X connect 5 0 23 4;
#X connect 5 0 25 4;
#X connect 5 0 26 4;
#X connect 5 0 27 4;
#X connect 5 0 28 4;
#X connect 5 0 29 4;
#X connect 5 0 30 4;
#X connect 5 0 31 4;
#X connect 6 0 23 1;
#X connect 6 0 25 1;
#X connect 6 0 26 1;
#X connect 6 0 27 1;
#X connect 6 0 28 1;
#X connect 6 0 29 1;
#X connect 6 0 30 1;
#X connect 6 0 31 1;
#X connect 7 0 23 5;
#X connect 7 0 25 5;
#X connect 7 0 26 5;
#X connect 7 0 27 5;
#X connect 7 0 28 5;
#X connect 7 0 29 5;
#X connect 7 0 30 5;
#X connect 7 0 31 5;
#X connect 8 0 23 2;
#X connect 8 0 25 2;
#X connect 8 0 26 2;
#X connect 8 0 27 2;
#X connect 8 0 28 2;
#X connect 8 0 29 2;
#X connect 8 0 30 2;
#X connect 8 0 31 2;
#X connect 9 0 23 6;
#X connect 9 0 25 6;
#X connect 9 0 26 6;
#X connect 9 0 27 6;
#X connect 9 0 28 6;
#X connect 9 0 29 6;
#X connect 9 0 30 6;
#X connect 9 0 31 6;
#X connect 10 0 23 3;
#X connect 10 0 25 3;
#X connect 10 0 26 3;
#X connect 10 0 27 3;
#X connect 10 0 28 3;
#X connect 10 0 29 3;
#X connect 10 0 30 3;
#X connect 10 0 31 3;
#X connect 11 0 23 7;
#X connect 11 0 25 7;
#X connect 11 0 26 7;
#X connect 11 0 27 7;
#X connect 11 0 28 7;
#X connect 11 0 29 7;
#X connect 11 0 30 7;
#X connect 11 0 31 7;
#X connect 22 0 23 8;
#X connect 22 1 25 8;
#X connect 22 2 26 8;
#X connect 22 3 27 8;
#X connect 22 4 28 8;
#X connect 22 5 29 8;
#X connect 22 6 30 8;
#X connect 22 7 31 8;
#X connect 23 0 24 0;
#X connect 23 1 24 1;
#X connect 23 2 24 2;
#X connect 23 3 24 3;
#X connect 23 4 24 4;
#X connect 23 5 24 5;
#X connect 23 6 24 6;
#X connect 23 7 24 7;
#X connect 24 0 12 0;
#X connect 24 1 14 0;
#X connect 24 2 16 0;
#X connect 24 3 18 0;
#X connect 24 4 13 0;
#X connect 24 5 15 0;
#X connect 24 6 17 0;
#X connect 24 7 19 0;
#X connect 25 0 24 8;
#X connect 25 1 24 9;
#X connect 25 2 24 10;
#X connect 25 3 24 11;
#X connect 25 4 24 12;
#X connect 25 5 24 13;
#X connect 25 6 24 14;
#X connect 25 7 24 15;
#X connect 26 0 24 16;
#X connect 26 1 24 17;
#X connect 26 2 24 18;
#X connect 26 3 24 19;
#X connect 26 4 24 20;
#X connect 26 5 24 21;
#X connect 26 6 24 22;
#X connect 26 7 24 23;
#X connect 27 0 24 24;
#X connect 27 1 24 25;
#X connect 27 2 24 26;
#X connect 27 3 24 27;
#X connect 27 4 24 28;
#X connect 27 5 24 29;
#X connect 27 6 24 30;
#X connect 27 7 24 31;
#X connect 28 0 24 32;
#X connect 28 1 24 33;
#X connect 28 2 24 34;
#X connect 28 3 24 35;
#X connect 28 4 24 36;
#X connect 28 5 24 37;
#X connect 28 6 24 38;
#X connect 28 7 24 39;
#X connect 29 0 24 40;
#X connect 29 1 24 41;
#X connect 29 2 24 42;
#X connect 29 3 24 43;
#X connect 29 4 24 44;
#X connect 29 5 24 45;
#X connect 29 6 24 46;
#X connect 29 7 24 47;
#X connect 30 0 24 48;
#X connect 30 1 24 49;
#X connect 30 2 24 50;
#X connect 30 3 24 51;
#X connect 30 4 24 52;
#X connect 30 5 24 53;
#X connect 30 6 24 54;
#X connect 30 7 24 55;
#X connect 31 0 24 56;
#X connect 31 1 24 57;
#X connect 31 2 24 58;
#X connect 31 3 24 59;
#X connect 31 4 24 60;
#X connect 31 5 24 61;
#X connect 31 6 24 62;
#X connect 31 7 24 63;
