#N canvas 215 379 485 376 10;
#X obj 80 163 bit;
#X obj 109 163 bit;
#X obj 141 163 bit;
#X obj 171 163 bit;
#X obj 203 163 bit;
#X obj 232 163 bit;
#X obj 264 163 bit;
#X obj 294 163 bit;
#X obj 41 265 outlet;
#X obj 91 266 outlet;
#X obj 137 265 outlet;
#X obj 179 265 outlet;
#X obj 226 264 outlet;
#X obj 276 265 outlet;
#X obj 322 264 outlet;
#X obj 364 264 outlet;
#X obj 374 81 inlet load;
#X obj 43 73 inlet;
#X obj 164 73 inlet;
#X obj 84 73 inlet;
#X obj 124 73 inlet;
#X obj 207 73 inlet;
#X obj 328 73 inlet;
#X obj 248 73 inlet;
#X obj 288 73 inlet;
#X connect 0 0 8 0;
#X connect 1 0 9 0;
#X connect 2 0 10 0;
#X connect 3 0 11 0;
#X connect 4 0 12 0;
#X connect 5 0 13 0;
#X connect 6 0 14 0;
#X connect 7 0 15 0;
#X connect 16 0 0 1;
#X connect 16 0 1 1;
#X connect 16 0 7 1;
#X connect 16 0 6 1;
#X connect 16 0 5 1;
#X connect 16 0 4 1;
#X connect 16 0 3 1;
#X connect 16 0 2 1;
#X connect 17 0 0 0;
#X connect 18 0 3 0;
#X connect 19 0 1 0;
#X connect 20 0 2 0;
#X connect 21 0 4 0;
#X connect 22 0 7 0;
#X connect 23 0 5 0;
#X connect 24 0 6 0;
#X coords 0 376 1 375 200 60 0;
