#N canvas 36 169 573 511 10;
#X obj 495 20 tgl 15 0 empty empty empty 17 7 0 10 -262144 -1 -1 0
1;
#X obj 495 76 s clock;
#N canvas 657 373 462 362 counter 1;
#X obj 224 59 tgl 15 0 empty empty empty 17 7 0 10 -262144 -1 -1 0
1;
#X obj 257 47 tgl 15 0 empty empty empty 17 7 0 10 -262144 -1 -1 0
1;
#X obj 294 36 tgl 15 0 empty empty empty 17 7 0 10 -262144 -1 -1 0
1;
#X floatatom 178 161 5 0 0 0 - - -, f 5;
#X obj 159 56 dectobin;
#X floatatom 161 16 5 -128 127 0 - - -, f 5;
#X text 217 36 inc;
#X text 249 23 load;
#X text 292 13 reset;
#X obj 168 128 bintodec;
#X obj 149 87 program_counter two;
#X connect 0 0 10 8;
#X connect 1 0 10 9;
#X connect 2 0 10 10;
#X connect 4 0 10 0;
#X connect 4 1 10 1;
#X connect 4 2 10 2;
#X connect 4 3 10 3;
#X connect 4 4 10 4;
#X connect 4 5 10 5;
#X connect 4 6 10 6;
#X connect 4 7 10 7;
#X connect 5 0 4 0;
#X connect 9 0 3 0;
#X connect 10 0 9 0;
#X connect 10 1 9 1;
#X connect 10 2 9 2;
#X connect 10 3 9 3;
#X connect 10 4 9 4;
#X connect 10 5 9 5;
#X connect 10 6 9 6;
#X connect 10 7 9 7;
#X restore 17 61 pd counter;
#X obj 17 92 alutester;
#N canvas 714 427 300 238 memory 0;
#X obj 105 103 RAM8;
#X obj 198 89 tgl 15 0 empty empty empty 17 7 0 10 -262144 -1 -1 0
1;
#X obj 135 73 dectobin;
#X obj 77 73 dectobin;
#X obj 94 128 bintodec;
#X floatatom 77 46 5 -128 127 0 - - -, f 5;
#X floatatom 94 155 5 0 0 0 - - -, f 5;
#X obj 135 46 hradio 15 1 0 8 empty empty empty 0 -8 0 10 -262144 -1
-1 6;
#X text 141 25 1 2 3 4 5 6 7 8;
#X connect 0 0 4 0;
#X connect 0 1 4 1;
#X connect 0 2 4 2;
#X connect 0 3 4 3;
#X connect 0 4 4 4;
#X connect 0 5 4 5;
#X connect 0 6 4 6;
#X connect 0 7 4 7;
#X connect 1 0 0 11;
#X connect 2 5 0 8;
#X connect 2 6 0 9;
#X connect 2 7 0 10;
#X connect 3 0 0 0;
#X connect 3 1 0 1;
#X connect 3 2 0 2;
#X connect 3 3 0 3;
#X connect 3 4 0 4;
#X connect 3 5 0 5;
#X connect 3 6 0 6;
#X connect 3 7 0 7;
#X connect 4 0 6 0;
#X connect 5 0 3 0;
#X connect 7 0 2 0;
#X restore 17 123 pd memory;
#N canvas 494 242 560 395 mem64 0;
#X obj 152 210 RAM64 one;
#X obj 152 237 bintodec;
#X obj 152 183 dectobin;
#X obj 208 183 dectobin;
#X obj 272 183 tgl 15 0 empty empty empty 17 7 0 10 -262144 -1 -1 0
1;
#X floatatom 152 158 5 -128 127 0 - - -, f 5;
#X floatatom 208 159 5 0 64 0 - - -, f 5;
#X obj 413 109 hradio 15 1 0 8 empty empty empty 0 -8 0 10 -262144
-1 -1 0;
#X obj 413 135 hradio 15 1 0 8 empty empty empty 0 -8 0 10 -262144
-1 -1 0;
#X obj 414 157 hradio 15 1 0 8 empty empty empty 0 -8 0 10 -262144
-1 -1 0;
#X obj 414 181 hradio 15 1 0 8 empty empty empty 0 -8 0 10 -262144
-1 -1 0;
#X obj 414 206 hradio 15 1 0 8 empty empty empty 0 -8 0 10 -262144
-1 -1 0;
#X obj 414 229 hradio 15 1 0 8 empty empty empty 0 -8 0 10 -262144
-1 -1 0;
#X obj 414 255 hradio 15 1 0 8 empty empty empty 0 -8 0 10 -262144
-1 -1 0;
#X obj 415 277 hradio 15 1 0 8 empty empty empty 0 -8 0 10 -262144
-1 -1 0;
#N canvas 739 306 450 344 addition 0;
#X obj 46 41 t b f;
#X obj 57 71 + 0;
#X obj 65 94 t b f;
#X obj 100 125 +;
#X obj 97 152 t b f;
#X obj 103 182 +;
#X obj 142 169 t b f;
#X obj 148 199 +;
#X obj 187 183 t b f;
#X obj 193 213 +;
#X obj 271 147 t b f;
#X obj 277 177 +;
#X obj 274 204 t b f;
#X obj 280 234 +;
#X obj 319 221 t b f;
#X obj 325 251 +;
#X obj 227 302 outlet;
#X obj 50 10 inlet;
#X obj 88 10 inlet;
#X obj 126 10 inlet;
#X obj 164 10 inlet;
#X obj 202 8 inlet;
#X obj 240 8 inlet;
#X obj 278 8 inlet;
#X obj 316 8 inlet;
#X obj 361 220 t b f;
#X obj 367 250 +;
#X obj 355 8 inlet;
#X connect 0 0 1 0;
#X connect 0 1 1 1;
#X connect 1 0 2 0;
#X connect 2 0 3 0;
#X connect 2 1 3 1;
#X connect 3 0 4 0;
#X connect 4 0 5 0;
#X connect 4 1 5 1;
#X connect 5 0 6 0;
#X connect 6 0 7 0;
#X connect 6 1 7 1;
#X connect 7 0 8 0;
#X connect 8 0 9 0;
#X connect 8 1 9 1;
#X connect 9 0 10 0;
#X connect 10 0 11 0;
#X connect 10 1 11 1;
#X connect 11 0 12 0;
#X connect 12 0 13 0;
#X connect 12 1 13 1;
#X connect 13 0 14 0;
#X connect 14 0 15 0;
#X connect 14 1 15 1;
#X connect 15 0 25 0;
#X connect 17 0 0 0;
#X connect 18 0 3 0;
#X connect 19 0 5 0;
#X connect 20 0 7 0;
#X connect 21 0 9 0;
#X connect 22 0 11 0;
#X connect 23 0 13 0;
#X connect 24 0 15 0;
#X connect 25 0 26 0;
#X connect 25 1 26 1;
#X connect 26 0 16 0;
#X connect 27 0 26 0;
#X restore 208 119 pd addition;
#X obj 417 298 hradio 15 1 0 8 empty empty empty 0 -8 0 10 -262144
-1 -1 0;
#X obj 152 272 nbx 5 50 -1e+37 1e+37 0 0 empty empty empty 0 -8 0 35
-4034 -1 -1 0 256;
#X connect 0 0 1 0;
#X connect 0 1 1 1;
#X connect 0 2 1 2;
#X connect 0 3 1 3;
#X connect 0 4 1 4;
#X connect 0 5 1 5;
#X connect 0 6 1 6;
#X connect 0 7 1 7;
#X connect 1 0 17 0;
#X connect 2 0 0 0;
#X connect 2 1 0 1;
#X connect 2 2 0 2;
#X connect 2 3 0 3;
#X connect 2 4 0 4;
#X connect 2 5 0 5;
#X connect 2 6 0 6;
#X connect 2 7 0 7;
#X connect 3 2 0 8;
#X connect 3 3 0 9;
#X connect 3 4 0 10;
#X connect 3 5 0 11;
#X connect 3 6 0 12;
#X connect 3 7 0 13;
#X connect 4 0 0 14;
#X connect 5 0 2 0;
#X connect 6 0 3 0;
#X connect 7 0 15 0;
#X connect 8 0 15 1;
#X connect 9 0 15 2;
#X connect 10 0 15 3;
#X connect 11 0 15 4;
#X connect 12 0 15 5;
#X connect 13 0 15 6;
#X connect 14 0 15 7;
#X connect 15 0 6 0;
#X connect 16 0 15 8;
#X restore 17 154 pd mem64;
#X msg 19 20 \; pd quit;
#X obj 495 52 metro 50;
#X connect 0 0 7 0;
#X connect 7 0 1 0;
